#!OML:ASF F:\VICON\USERDATA\INSTALL\rory3\rory3.ASF
:FULLY-SPECIFIED
:DEGREES
149
root -0.386084075857093 17.305987195678583 46.58588009934484 1.04256032780413 3.555256093689125 3.83965855231407
lfemur -9.849581972781555 -4.273868725603533 -32.3326406378098
ltibia 13.430468307687896
lfoot -7.551867987538289 -6.110981664133874
ltoes -8.11922558539827
rfemur -22.574320205325634 -7.902708066761407 12.714969907212652
rtibia 69.43306363864441
rfoot 12.194979240030673 -0.5835386758476311
rtoes -8.934002510868634
lowerback 1.0 -0.8163604501450437 -4.964822689214629
upperback 0.2602876159299313 -0.6422893902393452 -1.5288825764611123
thorax -8.703460412827784 -0.30723419132880087 2.6746289988552556
lowerneck -14.438316973919948 -4.711490094769205 -2.09550187563171
upperneck 8.718073187605192 -4.9044405147301315 4.9153592804627575
head 5.352451926339629 -2.3333737231020604 1.7399514395268696
lclavicle 1.601535287910493e-14 1.2870187840889327e-15
lhumerus -48.45847848425278 -5.644891694774749 91.77648095767802
lradius 128.92347574162818
lwrist 15.945812332108568
lhand -34.53887303701714 -6.679479315843727
lfingers nan
lthumb -7.926457640488929 23.030470797019127
rclavicle 1.758433748784919e-14 2.647826104011397e-15
rhumerus -61.27019046273279 2.0353162089853765 -90.6563602306245
rradius 106.10493641421742
rwrist 4.341849328428996
rhand -20.98583622545684 1.0
rfingers nan
rthumb 5.04689515361339 2.790117966458662
150
root -0.37113139667494544 17.29153704884315 46.85776881543566 1.232130679594941 3.822616758985906 3.722442164978986
lfemur -8.03109105302287 -5.119739394943037 -32.34107256063571
ltibia 13.892244620557172
lfoot -8.115844849196312 -7.529483189227812
ltoes 0.5387473144521095
rfemur -25.186319584161986 -8.779050797875698 12.104666330364449
rtibia 70.73505103158763
rfoot 10.754666394754668 -0.8840218601050776
rtoes -8.212157046901709
lowerback 1.0 -0.7804271947173438 -4.689832323035032
upperback 0.40979997668085855 -0.6669963938801686 -1.662876938860683
thorax -8.73965575625344 -0.3766330797052217 2.6368330009294962
lowerneck -14.845256538884616 -4.709307581273225 -1.8849804067816314
upperneck 8.010222731476947 -5.078736074328449 4.880098161276001
head 5.217327184991158 -2.392325550998739 1.6719340999759291
lclavicle 1.6970985935283342e-14 -2.4514915401490518e-14
lhumerus -46.77073107315353 -5.8070784900497765 91.4750640819861
lradius 128.59205239605254
lwrist 11.788292024466138
lhand -34.6130679580379 -6.795784240912126
lfingers nan
lthumb -7.9949822401234805 22.905884535122
rclavicle 1.810928942330174e-14 -2.336660896403007e-14
rhumerus -61.25691859418866 1.8753126583835993 -90.36816068292455
rradius 104.79327308115943
rwrist 3.083337846363566
rhand -21.95084065704827 1.0
rfingers nan
rthumb 4.174084097349793 1.6085666116156858
151
root -0.3752532431552669 17.294563020192655 47.15556120507326 1.626338459702355 3.4621440955212837 2.9562448746952983
lfemur -6.23012764977657 -4.992982595569263 -31.855972588278917
ltibia 14.159325605896086
lfoot -9.800788488031703 -5.041231510576307
ltoes -3.8285238613199386
rfemur -28.137035516542355 -8.9187723332176 12.990538539778012
rtibia 71.57961826483177
rfoot 9.688431922782193 -1.8568278796002193
rtoes -6.979261377097208
lowerback 1.0 -0.7184005792830275 -4.087778570779942
upperback 0.4274487996442752 -0.519347886600892 -1.4878660787211218
thorax -8.313541361630794 -0.38229066036410325 2.5778827153131214
lowerneck -17.446068559018997 -4.754836595616546 -1.5184016946414585
upperneck 9.772371145738365 -5.345778826316277 4.1051184938567395
head 6.130299661195734 -2.4535386157283856 1.2813633965662188
lclavicle -1.2458304920469695e-14 8.065054502177133e-15
lhumerus -45.294445955279485 -5.817305565505714 91.35579007984714
lradius 128.14473214304797
lwrist 7.250335997611192
lhand -34.41719725338132 -7.347532578099381
lfingers nan
lthumb -7.7998828781633165 22.36001267877952
rclavicle -1.1031464299230204e-14 9.201984749001255e-15
rhumerus -61.41970062836524 1.8444016071013891 -90.04114946461354
rradius 104.15077905378527
rwrist 1.1049836393321097
rhand -22.10443035072822 1.0
rfingers nan
rthumb 4.0919033907243065 0.17666966708846132
152
root -0.3948237227820401 17.33417290559658 47.2099616006071 2.2157994501122014 2.721163686804597 1.8537175757868036
lfemur -4.875288771019319 -4.390605160550756 -30.931870301822673
ltibia 14.18156437709684
lfoot -11.23886060120688 -1.4169570102638378
ltoes -10.879381171426829
rfemur -31.42036009424072 -8.55690647405832 14.829519689021538
rtibia 71.87281633242293
rfoot 9.097933583339357 -3.328138635881941
rtoes -7.049716103362298
lowerback 1.0 -0.6057528207781375 -3.389555085255311
upperback 0.18114832452232532 -0.25130257942329726 -1.162082415835765
thorax -8.18416971281777 -0.326912573904894 2.52451475189891
lowerneck -17.479456190106028 -4.6775938539875925 -1.6861480434686216
upperneck 9.491117216472418 -5.254561615018512 4.2930942074986955
head 6.065480118203623 -2.3835896399442236 1.3913791695314894
lclavicle 1.2204479169508553e-14 9.563370309375765e-15
lhumerus -44.31956043626066 -5.827326765095144 91.43756690117412
lradius 127.89565490459427
lwrist 2.772089138102526
lhand -34.632953058829756 -7.345697148949233
lfingers nan
lthumb -8.002711415853145 22.356483510477073
rclavicle 1.3330948387540383e-14 1.0373909935890816e-14
rhumerus -61.75163861917027 1.8274507546164536 -89.73059172102927
rradius 104.1672297496767
rwrist -1.0831910983088822
rhand -22.099871795015382 1.0
rfingers nan
rthumb 4.146629939723393 -1.5342717039889298
153
root -0.3704001633159594 17.40405792245902 47.56110953630826 2.515027373234495 2.24823854065956 1.2899363376076942
lfemur -3.3423431382138755 -3.9176917356105747 -30.625720044476402
ltibia 13.78105196822819
lfoot -11.512903506096718 0.822722013983352
ltoes -15.138171464194969
rfemur -34.00304600177619 -8.457573924185322 15.846563658487021
rtibia 70.82676384861983
rfoot 7.7635046589332255 -4.619535681312346
rtoes -17.353168168465007
lowerback 1.0 -0.585204961479838 -3.099443669350733
upperback 0.08812378233845386 -0.19356894620684084 -1.0074239612518785
thorax -7.800543151786665 -0.32734278924883337 2.5868099252553223
lowerneck -17.080879751188412 -4.524625268728111 -1.8039939732696009
upperneck 9.126732581321406 -5.045935873183708 4.4260990162212615
head 5.907335217937615 -2.2543115312439395 1.4973222222934672
lclavicle 1.0656411303417047e-14 -1.1023930699922902e-14
lhumerus -43.718537964741785 -5.751968809178744 91.56717974730093
lradius 127.9548331209946
lwrist -0.35971135370006735
lhand -34.95159198760173 -6.892827314995396
lfingers nan
lthumb -8.304550016372303 22.80363307361183
rclavicle 1.2095218240083365e-14 -9.726226454932717e-15
rhumerus -61.99071911911177 1.9924863917330917 -89.6501065892193
rradius 104.52858743198153
rwrist -3.585211979882944
rhand -21.95226335726789 1.0
rfingers nan
rthumb 4.319947968477786 -1.9429262165264927
